<?xml version="1.0" encoding="iso-8859-1"?>
<!-- Generator: Adobe Illustrator 19.0.0, SVG Export Plug-In . SVG Version: 6.00 Build 0)  -->
<svg xmlns="http://www.w3.org/2000/svg" xmlns:xlink="http://www.w3.org/1999/xlink" version="1.1" id="Layer_1" x="0px" y="0px" viewBox="0 0 491.52 491.52" style="enable-background:new 0 0 491.52 491.52;" xml:space="preserve" width="512px" height="512px">
<g>
	<g>
		<path d="M0,0v491.52h491.52V0H0z M471.04,471.04H20.48V102.4h450.56V471.04z M471.04,81.92H20.48V20.48h450.56V81.92z" fill="#FFFFFF"/>
	</g>
</g>
<g>
	<g>
		<rect x="430.08" y="40.96" width="20.48" height="20.48" fill="#FFFFFF"/>
	</g>
</g>
<g>
	<g>
		<rect x="389.12" y="40.96" width="20.48" height="20.48" fill="#FFFFFF"/>
	</g>
</g>
<g>
	<g>
		<rect x="348.16" y="40.96" width="20.48" height="20.48" fill="#FFFFFF"/>
	</g>
</g>
<g>
	<g>
		<rect x="51.2" y="40.96" width="266.24" height="20.48" fill="#FFFFFF"/>
	</g>
</g>
<g>
	<g>
		<polygon points="145.24,335.03 124.63,405.15 112.165,365.56 92.635,365.56 80.17,405.15 59.56,335.03 39.91,340.81     70.005,443.21 89.595,443.4 102.4,402.74 115.205,443.4 134.795,443.21 164.89,340.81   " fill="#FFFFFF"/>
	</g>
</g>
<g>
	<g>
		<polygon points="288.6,335.03 267.99,405.15 255.525,365.56 235.995,365.56 223.53,405.15 202.92,335.03 183.27,340.81     213.365,443.21 232.955,443.4 245.76,402.74 258.565,443.4 278.155,443.21 308.25,340.81   " fill="#FFFFFF"/>
	</g>
</g>
<g>
	<g>
		<polygon points="431.96,335.03 411.35,405.15 398.885,365.56 379.355,365.56 366.89,405.15 346.28,335.03 326.63,340.81     356.725,443.21 376.315,443.4 389.12,402.74 401.925,443.4 421.515,443.21 451.61,340.81   " fill="#FFFFFF"/>
	</g>
</g>
<g>
	<g>
		<path d="M40.96,122.88v174.08h409.6V122.88H40.96z M430.08,276.48H61.44V143.36h368.64V276.48z" fill="#FFFFFF"/>
	</g>
</g>
<g>
	<g>
		<path d="M387.809,219.729c10.199-16.749,8.186-38.906-6.279-53.379h-0.005c-16.98-16.98-44.6-16.98-61.57,0    c-8.225,8.23-12.755,19.16-12.755,30.79s4.53,22.56,12.75,30.78c8.225,8.23,19.155,12.76,30.79,12.76    c8.121,0,15.839-2.332,22.593-6.467l29.027,29.027l14.48-14.48L387.809,219.729z M367.035,213.44c-8.705,8.72-23.89,8.72-32.6,0    c-4.355-4.36-6.755-10.14-6.755-16.3c0-6.16,2.4-11.95,6.755-16.31c4.495-4.49,10.4-6.74,16.305-6.74    c5.9,0,11.805,2.25,16.305,6.74C376.03,189.83,376.03,204.45,367.035,213.44z" fill="#FFFFFF"/>
	</g>
</g>
<g>
</g>
<g>
</g>
<g>
</g>
<g>
</g>
<g>
</g>
<g>
</g>
<g>
</g>
<g>
</g>
<g>
</g>
<g>
</g>
<g>
</g>
<g>
</g>
<g>
</g>
<g>
</g>
<g>
</g>
</svg>
